<?xml version="1.0" encoding="UTF-8"?>
<svg width="600" height="400" viewBox="0 0 600 400" xmlns="http://www.w3.org/2000/svg">
  <!-- Background elements -->
  <defs>
    <linearGradient id="bgGradient" x1="0%" y1="0%" x2="100%" y2="100%">
      <stop offset="0%" stop-color="#4361ee" stop-opacity="0.1"/>
      <stop offset="100%" stop-color="#7209b7" stop-opacity="0.1"/>
    </linearGradient>
    <linearGradient id="glowGradient" x1="0%" y1="0%" x2="100%" y2="100%">
      <stop offset="0%" stop-color="#4cc9f0"/>
      <stop offset="100%" stop-color="#80ffdb"/>
    </linearGradient>
    <filter id="glow" x="-20%" y="-20%" width="140%" height="140%">
      <feGaussianBlur stdDeviation="5" result="blur"/>
      <feComposite in="SourceGraphic" in2="blur" operator="over"/>
    </filter>
  </defs>
  
  <!-- Background Shape -->
  <rect width="600" height="400" rx="20" fill="url(#bgGradient)"/>
  
  <!-- Connect dots pattern -->
  <g fill="#4361ee" opacity="0.7">
    <!-- Nodes -->
    <circle cx="100" cy="80" r="5"/>
    <circle cx="150" cy="150" r="5"/>
    <circle cx="220" cy="90" r="5"/>
    <circle cx="300" cy="180" r="5"/>
    <circle cx="380" cy="90" r="5"/>
    <circle cx="450" cy="150" r="5"/>
    <circle cx="500" cy="80" r="5"/>
    <circle cx="100" cy="250" r="5"/>
    <circle cx="200" cy="280" r="5"/>
    <circle cx="300" cy="320" r="5"/>
    <circle cx="400" cy="280" r="5"/>
    <circle cx="500" cy="250" r="5"/>
    
    <!-- Connections -->
    <line x1="100" y1="80" x2="150" y2="150" stroke="#4361ee" stroke-width="1.5" opacity="0.4"/>
    <line x1="150" y1="150" x2="220" y2="90" stroke="#4361ee" stroke-width="1.5" opacity="0.4"/>
    <line x1="220" y1="90" x2="300" y2="180" stroke="#4361ee" stroke-width="1.5" opacity="0.4"/>
    <line x1="300" y1="180" x2="380" y2="90" stroke="#4361ee" stroke-width="1.5" opacity="0.4"/>
    <line x1="380" y1="90" x2="450" y2="150" stroke="#4361ee" stroke-width="1.5" opacity="0.4"/>
    <line x1="450" y1="150" x2="500" y2="80" stroke="#4361ee" stroke-width="1.5" opacity="0.4"/>
    <line x1="100" y1="250" x2="200" y2="280" stroke="#4361ee" stroke-width="1.5" opacity="0.4"/>
    <line x1="200" y1="280" x2="300" y2="320" stroke="#4361ee" stroke-width="1.5" opacity="0.4"/>
    <line x1="300" y1="320" x2="400" y2="280" stroke="#4361ee" stroke-width="1.5" opacity="0.4"/>
    <line x1="400" y1="280" x2="500" y2="250" stroke="#4361ee" stroke-width="1.5" opacity="0.4"/>
    <line x1="100" y1="80" x2="100" y2="250" stroke="#4361ee" stroke-width="1.5" opacity="0.4"/>
    <line x1="220" y1="90" x2="200" y2="280" stroke="#4361ee" stroke-width="1.5" opacity="0.4"/>
    <line x1="300" y1="180" x2="300" y2="320" stroke="#4361ee" stroke-width="1.5" opacity="0.4"/>
    <line x1="380" y1="90" x2="400" y2="280" stroke="#4361ee" stroke-width="1.5" opacity="0.4"/>
    <line x1="500" y1="80" x2="500" y2="250" stroke="#4361ee" stroke-width="1.5" opacity="0.4"/>
  </g>
  
  <!-- Central AI Element -->
  <g transform="translate(300, 200)">
    <!-- Brain outline -->
    <path d="M0,-70 C30,-70 50,-50 50,-20 C50,10 30,30 0,30 C-30,30 -50,10 -50,-20 C-50,-50 -30,-70 0,-70 Z" 
          fill="none" stroke="#4cc9f0" stroke-width="3" filter="url(#glow)"/>
    <!-- Neural network inside brain -->
    <circle cx="-20" cy="-40" r="8" fill="url(#glowGradient)"/>
    <circle cx="20" cy="-40" r="8" fill="url(#glowGradient)"/>
    <circle cx="-30" cy="-10" r="8" fill="url(#glowGradient)"/>
    <circle cx="0" cy="-10" r="8" fill="url(#glowGradient)"/>
    <circle cx="30" cy="-10" r="8" fill="url(#glowGradient)"/>
    <circle cx="-20" cy="20" r="8" fill="url(#glowGradient)"/>
    <circle cx="20" cy="20" r="8" fill="url(#glowGradient)"/>
    
    <!-- Connections -->
    <line x1="-20" y1="-40" x2="-30" y2="-10" stroke="#80ffdb" stroke-width="2"/>
    <line x1="-20" y1="-40" x2="0" y2="-10" stroke="#80ffdb" stroke-width="2"/>
    <line x1="20" y1="-40" x2="0" y2="-10" stroke="#80ffdb" stroke-width="2"/>
    <line x1="20" y1="-40" x2="30" y2="-10" stroke="#80ffdb" stroke-width="2"/>
    <line x1="-30" y1="-10" x2="-20" y2="20" stroke="#80ffdb" stroke-width="2"/>
    <line x1="0" y1="-10" x2="-20" y2="20" stroke="#80ffdb" stroke-width="2"/>
    <line x1="0" y1="-10" x2="20" y2="20" stroke="#80ffdb" stroke-width="2"/>
    <line x1="30" y1="-10" x2="20" y2="20" stroke="#80ffdb" stroke-width="2"/>
  </g>
  
  <!-- Pulse animations -->
  <circle cx="300" cy="200" r="80" fill="none" stroke="#4cc9f0" stroke-width="2" opacity="0.3">
    <animate attributeName="r" values="80;120;80" dur="4s" repeatCount="indefinite"/>
    <animate attributeName="opacity" values="0.3;0;0.3" dur="4s" repeatCount="indefinite"/>
  </circle>
  <circle cx="300" cy="200" r="100" fill="none" stroke="#4cc9f0" stroke-width="1.5" opacity="0.2">
    <animate attributeName="r" values="100;140;100" dur="4s" repeatCount="indefinite"/>
    <animate attributeName="opacity" values="0.2;0;0.2" dur="4s" repeatCount="indefinite"/>
  </circle>
</svg>
