<svg width="1440" height="800" xmlns="http://www.w3.org/2000/svg">
  <defs>
    <linearGradient id="grad1" x1="0%" y1="0%" x2="100%" y2="100%">
      <stop offset="0%" style="stop-color:#4361ee;stop-opacity:0.2" />
      <stop offset="100%" style="stop-color:#3a0ca3;stop-opacity:0.05" />
    </linearGradient>
    <radialGradient id="grad2" cx="70%" cy="30%" r="50%" fx="70%" fy="30%">
      <stop offset="0%" style="stop-color:#4cc9f0;stop-opacity:0.1" />
      <stop offset="100%" style="stop-color:#4cc9f0;stop-opacity:0" />
    </radialGradient>
    <pattern id="dots" width="30" height="30" patternUnits="userSpaceOnUse">
      <circle cx="10" cy="10" r="1" fill="white" fill-opacity="0.3" />
    </pattern>
  </defs>
  <rect width="100%" height="100%" fill="url(#grad1)" />
  <circle cx="70%" cy="30%" r="400" fill="url(#grad2)" />
  <rect width="100%" height="100%" fill="url(#dots)" />
  
  <!-- Abstract geometric shapes -->
  <circle cx="15%" cy="20%" r="2" fill="white" fill-opacity="0.7" />
  <circle cx="18%" cy="25%" r="1.5" fill="white" fill-opacity="0.5" />
  <circle cx="20%" cy="15%" r="1" fill="white" fill-opacity="0.4" />
  <circle cx="85%" cy="75%" r="2" fill="white" fill-opacity="0.6" />
  <circle cx="80%" cy="80%" r="1.5" fill="white" fill-opacity="0.5" />
  <circle cx="90%" cy="70%" r="1" fill="white" fill-opacity="0.4" />
  
  <!-- AI-inspired elements -->
  <g opacity="0.15">
    <!-- Neural connections -->
    <path d="M400,300 C500,200 600,400 700,300" stroke="white" stroke-width="0.5" fill="none" />
    <path d="M300,500 C400,400 500,600 600,500" stroke="white" stroke-width="0.5" fill="none" />
    <path d="M800,200 C900,100 1000,300 1100,200" stroke="white" stroke-width="0.5" fill="none" />
    <path d="M200,700 C300,600 400,800 500,700" stroke="white" stroke-width="0.5" fill="none" />
    <path d="M900,600 C1000,500 1100,700 1200,600" stroke="white" stroke-width="0.5" fill="none" />
    
    <!-- Nodes -->
    <circle cx="400" cy="300" r="3" fill="white" />
    <circle cx="700" cy="300" r="3" fill="white" />
    <circle cx="300" cy="500" r="3" fill="white" />
    <circle cx="600" cy="500" r="3" fill="white" />
    <circle cx="800" cy="200" r="3" fill="white" />
    <circle cx="1100" cy="200" r="3" fill="white" />
    <circle cx="200" cy="700" r="3" fill="white" />
    <circle cx="500" cy="700" r="3" fill="white" />
    <circle cx="900" cy="600" r="3" fill="white" />
    <circle cx="1200" cy="600" r="3" fill="white" />
  </g>
</svg>