<svg xmlns="http://www.w3.org/2000/svg" viewBox="0 0 200 60">
  <defs>
    <linearGradient id="logoGradient" x1="0%" y1="0%" x2="100%" y2="100%">
      <stop offset="0%" stop-color="#4361ee" />
      <stop offset="100%" stop-color="#3a0ca3" />
    </linearGradient>
    <linearGradient id="flameGradient" x1="0%" y1="0%" x2="100%" y2="100%">
      <stop offset="0%" stop-color="#4cc9f0" />
      <stop offset="60%" stop-color="#7209b7" />
      <stop offset="100%" stop-color="#f72585" />
    </linearGradient>
    <filter id="glow" x="-20%" y="-20%" width="140%" height="140%">
      <feGaussianBlur stdDeviation="1.5" result="blur"/>
      <feComposite in="SourceGraphic" in2="blur" operator="over"/>
    </filter>
    <filter id="softShadow" x="-10%" y="-10%" width="120%" height="120%">
      <feDropShadow dx="0" dy="1" stdDeviation="1" flood-color="#000" flood-opacity="0.2"/>
    </filter>
    <!-- Animation definitions -->
    <animate id="flameAnimation" attributeName="opacity" values="0.8;1;0.8" dur="2s" repeatCount="indefinite" />
  </defs>

  <!-- Main Torch Shape -->
  <path d="M30,12 L38,12 L38,30 C38,36 32,42 25,44 C18,42 12,36 12,30 L12,12 L20,12 L20,30 C20,32 22,34 25,35 C28,34 30,32 30,30 L30,12 Z" fill="url(#logoGradient)" filter="url(#softShadow)"/>
  
  <!-- Dynamic Flame -->
  <g filter="url(#glow)">
    <path d="M25,5 C25,5 21,9 21,12 C21,15 23,17 25,17 C27,17 29,15 29,12 C29,9 25,5 25,5 Z" fill="url(#flameGradient)">
      <animate attributeName="d" 
               values="M25,5 C25,5 21,9 21,12 C21,15 23,17 25,17 C27,17 29,15 29,12 C29,9 25,5 25,5 Z;
                      M25,4 C25,4 20,8 20,12 C20,16 22,18 25,18 C28,18 30,16 30,12 C30,8 25,4 25,4 Z;
                      M25,5 C25,5 21,9 21,12 C21,15 23,17 25,17 C27,17 29,15 29,12 C29,9 25,5 25,5 Z" 
               dur="3s" 
               repeatCount="indefinite" />
      <animate attributeName="opacity" values="0.9;1;0.9" dur="2s" repeatCount="indefinite" />
    </path>
    
    <!-- Small flame particles -->
    <circle cx="25" cy="7" r="1.2" fill="#4cc9f0" opacity="0.7">
      <animate attributeName="cy" values="7;6;7" dur="2s" repeatCount="indefinite" />
      <animate attributeName="opacity" values="0.7;0.9;0.7" dur="2s" repeatCount="indefinite" />
    </circle>
    <circle cx="23" cy="9" r="0.8" fill="#4cc9f0" opacity="0.6">
      <animate attributeName="cy" values="9;8;9" dur="2.5s" repeatCount="indefinite" />
    </circle>
    <circle cx="27" cy="8" r="0.9" fill="#4cc9f0" opacity="0.6">
      <animate attributeName="cy" values="8;7;8" dur="3s" repeatCount="indefinite" />
    </circle>
  </g>
  
  <!-- Text -->
  <g filter="url(#softShadow)">
    <text x="55" y="33" font-family="'Outfit', sans-serif" font-weight="700" font-size="22" fill="#1e2a45">TORCH AI</text>
    <text x="56" y="45" font-family="'Inter', sans-serif" font-weight="400" font-size="9" fill="#4361ee" letter-spacing="0.5">PROMPT ENGINEERING</text>
  </g>
  
  <!-- Decorative Elements -->
  <circle cx="160" cy="20" r="3" fill="#4cc9f0" opacity="0.7">
    <animate attributeName="opacity" values="0.4;0.7;0.4" dur="4s" repeatCount="indefinite" />
  </circle>
  <circle cx="170" cy="15" r="1.5" fill="#4cc9f0" opacity="0.5">
    <animate attributeName="opacity" values="0.3;0.6;0.3" dur="3s" repeatCount="indefinite" />
  </circle>
  <circle cx="180" cy="25" r="2" fill="#4cc9f0" opacity="0.6">
    <animate attributeName="opacity" values="0.4;0.8;0.4" dur="5s" repeatCount="indefinite" />
  </circle>
  
  <!-- AI Circuit Pattern -->
  <path d="M155,38 L165,38 L165,42 L172,42" stroke="#4361ee" stroke-width="0.5" fill="none" opacity="0.5" />
  <path d="M162,30 L168,30 L168,35" stroke="#4361ee" stroke-width="0.5" fill="none" opacity="0.5" />
  <path d="M175,32 L175,38 L182,38" stroke="#4361ee" stroke-width="0.5" fill="none" opacity="0.5" />
  <circle cx="172" cy="42" r="1" fill="#4361ee" opacity="0.6" />
  <circle cx="168" cy="35" r="1" fill="#4361ee" opacity="0.6" />
  <circle cx="182" cy="38" r="1" fill="#4361ee" opacity="0.6" />
</svg>